HIERARCHY
ROOT hips
{
  OFFSET 0 11.86390953 0.3628582958
  CHANNELS 6 Xposition Yposition Zposition Yrotation Xrotation Zrotation
  JOINT spine
  {
    OFFSET 0 0.05383551117999996 0
    CHANNELS 3 Yrotation Xrotation Zrotation
    JOINT chest
    {
      OFFSET 0 0.6394558760401424 0
      CHANNELS 3 Yrotation Xrotation Zrotation
      JOINT neck
      {
        OFFSET 0 2.720089088562982 0
        CHANNELS 3 Yrotation Xrotation Zrotation
        JOINT head
        {
          OFFSET 0 0.37880844870545777 0
          CHANNELS 3 Yrotation Xrotation Zrotation
          JOINT rightEye
          {
            OFFSET -0.42867780714 0.7547055649100001 0.7381831347
            CHANNELS 3 Yrotation Xrotation Zrotation
            End Site
            {
              OFFSET -0.42867780714 0.7547055649100001 0.7381831347
            }
          }
          JOINT leftEye
          {
            OFFSET 0.428676479 0.7547055559999993 0.7381844503
            CHANNELS 3 Yrotation Xrotation Zrotation
            End Site
            {
              OFFSET 0.428676479 0.7547055559999993 0.7381844503
            }
          }
          JOINT jaw
          {
            OFFSET -0.18933892286100001 1.5626303011000007 1.137441874206
            CHANNELS 3 Yrotation Xrotation Zrotation
            End Site
            {
              OFFSET -0.18933892286100001 1.5626303011000007 1.137441874206
            }
          }
        }
      }
      JOINT rightShoulder
      {
        OFFSET -0.6795351508 2.0665205 0
        CHANNELS 3 Yrotation Xrotation Zrotation
        JOINT rightUpperArm
        {
          OFFSET -0.7287400483531672 0 0
          CHANNELS 3 Yrotation Xrotation Zrotation
          JOINT rightLowerArm
          {
            OFFSET -1.9872982039174532 0 0
            CHANNELS 3 Yrotation Xrotation Zrotation
            JOINT rightHand
            {
              OFFSET -2.6451847532219275 0 0
              CHANNELS 3 Yrotation Xrotation Zrotation
              JOINT rightLittleProximal
              {
                OFFSET -0.8008804099999995 -0.09592044000000044 -0.26183688629999996
                CHANNELS 3 Yrotation Xrotation Zrotation
                JOINT rightLittleIntermediate
                {
                  OFFSET -0.2473955153999997 -0.02541697026000067 0.002370178700999967
                  CHANNELS 3 Yrotation Xrotation Zrotation
                  JOINT rightLittleDistal
                  {
                    OFFSET -0.163687229200001 -0.015790700860001117 -0.0004274845300000635
                    CHANNELS 3 Yrotation Xrotation Zrotation
                    End Site
                    {
                      OFFSET -0.163687229200001 -0.015790700860001117 -0.0004274845300000635
                    }
                  }
                }
              }
              JOINT rightRingProximal
              {
                OFFSET -0.8393382799999985 -0.06223833561000025 -0.09213143500000005
                CHANNELS 3 Yrotation Xrotation Zrotation
                JOINT rightRingIntermediate
                {
                  OFFSET -0.3284497260000011 -0.03264224524000103 0.009408593183000052
                  CHANNELS 3 Yrotation Xrotation Zrotation
                  JOINT rightRingDistal
                  {
                    OFFSET -0.19447660429999902 -0.021730899850000318 0.003074347969000052
                    CHANNELS 3 Yrotation Xrotation Zrotation
                    End Site
                    {
                      OFFSET -0.19447660429999902 -0.021730899850000318 0.003074347969000052
                    }
                  }
                }
              }
              JOINT rightMiddleProximal
              {
                OFFSET -0.8473005199999989 -0.06735503500000095 0.10541820299999995
                CHANNELS 3 Yrotation Xrotation Zrotation
                JOINT rightMiddleIntermediate
                {
                  OFFSET -0.3450455799999995 -0.02481901642000084 0.019012570390000032
                  CHANNELS 3 Yrotation Xrotation Zrotation
                  JOINT rightMiddleDistal
                  {
                    OFFSET -0.23542332000000088 -0.025003910029999243 0.0075583457949999905
                    CHANNELS 3 Yrotation Xrotation Zrotation
                    End Site
                    {
                      OFFSET -0.23542332000000088 -0.025003910029999243 0.0075583457949999905
                    }
                  }
                }
              }
              JOINT rightIndexProximal
              {
                OFFSET -0.8008568281999987 -0.09897839600000169 0.29462796
                CHANNELS 3 Yrotation Xrotation Zrotation
                JOINT rightIndexIntermediate
                {
                  OFFSET -0.30524754480000016 -0.024634122809999992 0.02743375304999998
                  CHANNELS 3 Yrotation Xrotation Zrotation
                  JOINT rightIndexDistal
                  {
                    OFFSET -0.23067378950000017 -0.016876459159999913 0.008484125099999983
                    CHANNELS 3 Yrotation Xrotation Zrotation
                    End Site
                    {
                      OFFSET -0.23067378950000017 -0.016876459159999913 0.008484125099999983
                    }
                  }
                }
              }
              JOINT rightThumbProximal
              {
                OFFSET -0.25574064999999935 -0.12833189930000155 0.22385698609999993
                CHANNELS 3 Yrotation Xrotation Zrotation
                JOINT rightThumbIntermediate
                {
                  OFFSET -0.22791743260000086 -0.07103586192999978 0.27385039
                  CHANNELS 3 Yrotation Xrotation Zrotation
                  JOINT rightThumbDistal
                  {
                    OFFSET -0.13610267659999975 -0.03369390969999997 0.14246511509999996
                    CHANNELS 3 Yrotation Xrotation Zrotation
                    End Site
                    {
                      OFFSET -0.13610267659999975 -0.03369390969999997 0.14246511509999996
                    }
                  }
                }
              }
            }
          }
        }
      }
      JOINT leftShoulder
      {
        OFFSET 0.6795338396 2.0665205 0
        CHANNELS 3 Yrotation Xrotation Zrotation
        JOINT leftUpperArm
        {
          OFFSET 0.7287383950230443 0 0
          CHANNELS 3 Yrotation Xrotation Zrotation
          JOINT leftLowerArm
          {
            OFFSET 1.9872997282019604 0 0
            CHANNELS 3 Yrotation Xrotation Zrotation
            JOINT leftHand
            {
              OFFSET 2.6451820781302327 0 0
              CHANNELS 3 Yrotation Xrotation Zrotation
              JOINT leftLittleProximal
              {
                OFFSET 0.8008804099999995 -0.09592306899999814 -0.2618342639000001
                CHANNELS 3 Yrotation Xrotation Zrotation
                JOINT leftLittleIntermediate
                {
                  OFFSET 0.2473981400000007 -0.02542352681000093 0.0023609995859999455
                  CHANNELS 3 Yrotation Xrotation Zrotation
                  JOINT leftLittleDistal
                  {
                    OFFSET 0.1636846068000002 -0.015794634789999318 -0.00043272972159996703
                    CHANNELS 3 Yrotation Xrotation Zrotation
                    End Site
                    {
                      OFFSET 0.1636846068000002 -0.015794634789999318 -0.00043272972159996703
                    }
                  }
                }
              }
              JOINT leftRingProximal
              {
                OFFSET 0.8393409199999996 -0.062242267999998324 -0.0921281570000001
                CHANNELS 3 Yrotation Xrotation Zrotation
                JOINT leftRingIntermediate
                {
                  OFFSET 0.3284471036000003 -0.03264224524000103 0.009405970574000042
                  CHANNELS 3 Yrotation Xrotation Zrotation
                  JOINT leftRingDistal
                  {
                    OFFSET 0.1944779099999996 -0.021732211159998904 0.003073036670000001
                    CHANNELS 3 Yrotation Xrotation Zrotation
                    End Site
                    {
                      OFFSET 0.1944779099999996 -0.021732211159998904 0.003073036670000001
                    }
                  }
                }
              }
              JOINT leftMiddleProximal
              {
                OFFSET 0.8473005200000001 -0.06736028199999788 0.1054214809999999
                CHANNELS 3 Yrotation Xrotation Zrotation
                JOINT leftMiddleIntermediate
                {
                  OFFSET 0.3450455799999995 -0.024824261000000014 0.019013225990000007
                  CHANNELS 3 Yrotation Xrotation Zrotation
                  JOINT leftMiddleDistal
                  {
                    OFFSET 0.2354259489999998 -0.025005222000000327 0.0075590014499999705
                    CHANNELS 3 Yrotation Xrotation Zrotation
                    End Site
                    {
                      OFFSET 0.2354259489999998 -0.025005222000000327 0.0075590014499999705
                    }
                  }
                }
              }
              JOINT leftIndexProximal
              {
                OFFSET 0.8008594516999996 -0.09898495199999946 0.29463124239999994
                CHANNELS 3 Yrotation Xrotation Zrotation
                JOINT leftIndexIntermediate
                {
                  OFFSET 0.30524754480000016 -0.024632811499998963 0.02743047472
                  CHANNELS 3 Yrotation Xrotation Zrotation
                  JOINT leftIndexDistal
                  {
                    OFFSET 0.23067378950000017 -0.016876459159999913 0.008481502700000004
                    CHANNELS 3 Yrotation Xrotation Zrotation
                    End Site
                    {
                      OFFSET 0.23067378950000017 -0.016876459159999913 0.008481502700000004
                    }
                  }
                }
              }
              JOINT leftThumbProximal
              {
                OFFSET 0.25574326469999953 -0.12833321050000013 0.22385764169999997
                CHANNELS 3 Yrotation Xrotation Zrotation
                JOINT leftThumbIntermediate
                {
                  OFFSET 0.22804987480000094 -0.07138466829999968 0.273648441
                  CHANNELS 3 Yrotation Xrotation Zrotation
                  JOINT leftThumbDistal
                  {
                    OFFSET 0.13614857189999907 -0.033867001519998885 0.14238119169999996
                    CHANNELS 3 Yrotation Xrotation Zrotation
                    End Site
                    {
                      OFFSET 0.13614857189999907 -0.033867001519998885 0.14238119169999996
                    }
                  }
                }
              }
            }
          }
        }
      }
    }
  }
  JOINT rightUpperLeg
  {
    OFFSET -0.9749898906000001 -1.8495733739999998 0
    CHANNELS 3 Yrotation Xrotation Zrotation
    JOINT rightLowerLeg
    {
      OFFSET 0 -4.1566544686813165 0
      CHANNELS 3 Yrotation Xrotation Zrotation
      JOINT rightFoot
      {
        OFFSET 0.14539718599999998 -4.225553926 -0.3666210900000001
        CHANNELS 3 Yrotation Xrotation Zrotation
        JOINT rightToes
        {
          OFFSET 0.1706738473 -0.9584117400000015 1.0093348617
          CHANNELS 3 Yrotation Xrotation Zrotation
          End Site
          {
            OFFSET 0.1706738473 -0.9584117400000015 1.0093348617
          }
        }
      }
    }
  }
  JOINT leftUpperLeg
  {
    OFFSET 0.9749898906000001 -1.8495733739999998 0
    CHANNELS 3 Yrotation Xrotation Zrotation
    JOINT leftLowerLeg
    {
      OFFSET 0 -4.156653488267941 0
      CHANNELS 3 Yrotation Xrotation Zrotation
      JOINT leftFoot
      {
        OFFSET -0.14537357999999995 -4.225555399999999 -0.36661124279999996
        CHANNELS 3 Yrotation Xrotation Zrotation
        JOINT leftToes
        {
          OFFSET -0.17066467000000002 -0.9584157000000019 1.0093348617
          CHANNELS 3 Yrotation Xrotation Zrotation
          End Site
          {
            OFFSET -0.17066467000000002 -0.9584157000000019 1.0093348617
          }
        }
      }
    }
  }
}
MOTION
Frames: 4
Frame Time: 0.03333333333333333
0.01654917746782303 -0.10137348111084066 0.010004207491874695 -5.277565626133666 -3.735636464332611 -3.358026553075929 1.5806758059896135 3.2948107474226878 2.813432954101231 0.7720261907482492 2.2667611664274 3.12937319177209 -0.07343920790016438 5.626284765130169 0.4484651882134131 1.3866302879405787 -7.560943355020449 -0.2808219270197175 0 0 0 0 0 0 0 0 0 15.533154793125037 1.1604198277537296 14.830696418629952 28.797014551877446 11.307921170494499 64.73358874461108 6.693169953077544 0.0050577750972830154 -0.0862676295818265 -0.45463821444635655 -20.184015187575085 6.945688989222862 -4.502145575169231 0.6446730031978896 26.474280863028564 -1.0868261553985712 0.1336536764375528 17.44855957062844 -1.1785647095738079 0.13417282559328786 16.548757213156282 -2.800315289593365 -0.021433802793608563 20.487202131398885 -1.4285965554645814 0.26237700441929035 20.960994772438287 -1.2185463050530014 0.1964250593282398 17.909408257682667 -2.0690378168002477 -0.1459992401288659 15.03182150728489 -1.0810416769256235 0.16860815877113583 17.447905554076033 -1.279406186224665 0.20091764326387768 18.459037205643522 1.331415426770524 0.03573818007691037 6.808077586656806 -1.1458137515662496 0.17680076778176998 17.4188451287138 -0.5602812581050338 0.03872021528497193 8.060660798328373 -0.9818039043744913 -1.4062247272309543 -4.358965854152364 -29.5832547392935 10.853422012040177 -21.782645899084702 -3.004663356185043 -15.647481068507938 -11.768759675279217 -17.601401398917755 1.0179335895626593 -12.413992772812461 -20.717738551246526 3.2272312124280487 -70.88980138599055 -1.4592357864732706 0.00024185295892755322 0.018850428758384177 -1.7268014126106206 -33.22257061887368 -5.222315071389121 5.438040285133644 0.9578303010982508 -27.112000241207678 1.5006313905376634 0.29788849006115 -17.418524616982985 1.4412808313902785 0.2690547334055586 -16.518942021032615 3.3753416186015306 0.08842541166514696 -21.17055345813712 1.8304659389005853 0.3383048638749655 -20.924805914229225 1.5734572460625147 0.24774926227722435 -17.878951894225168 2.4618945127279455 -0.10413176738056928 -15.733139114126853 1.5367618472302453 0.23470623341846247 -17.419540284484686 1.6224323691758666 0.263160296616369 -18.427220095326096 -1.0723512251624354 0.012802354274866097 -7.5805714096374 1.5434464909267545 0.23635752564400273 -17.38985815878162 0.7098116393432156 0.05037702720962364 -8.047113173966336 2.867401908072858 -0.44626532691908877 4.915260982249425 25.182237590481943 10.52450556766468 21.571646554959315 3.0283578922278838 -13.946157001884426 8.181855668017953 -10.345438366390932 0.6491457281722323 3.532826413264317 -9.884405644000699 7.227900259200011 -4.406308218961286 -1.6189194942407366 -3.647244586295384 3.326733001942351 0.000005745621619512144 -7.2828726511056185 -0.0000017841566861669362 15.124844500338147 -10.397621796799482 7.359414418384566 2.13329170080313 12.126571417722984 4.589050473476686 0.4296327068272787 1.2820541952432118 -7.107127886439078 -1.5183579477825883e-7 -4.928524695161564 -0.0000020787075754932715
0.016409339383244514 -0.10148029263427816 0.013719397597014904 -5.253871514882999 -3.817431004418531 -3.3575471572930864 1.579892079519022 3.294834051275482 2.8126612986590223 0.7720266179305907 2.2667615936485204 3.1293729784800672 -0.08364224209480561 5.638077239753112 0.4580323747137509 1.3394418428993113 -7.508982237494464 -0.27119554406521906 0 0 0 0 0 0 0 0 0 15.540646412772336 1.15693465143674 14.836307880685444 28.810534529607647 11.28580773409956 64.76219265256705 6.679065255067518 0.0050267924519533606 -0.08606751326925488 -0.5293654334384414 -20.124705528199257 7.0761134305047735 -4.536756289282683 0.6683281415925045 27.24584517960891 -1.083726126924505 0.1328003673919264 17.401621413344557 -1.1754753871242234 0.1333451698291361 16.501902432298873 -2.9282057672760704 0.015225560723736849 21.22638649314408 -1.4305346766895144 0.26311045705416747 20.991216548079823 -1.2203769440582617 0.1970300682446065 17.937692294996364 -2.059731686726043 -0.168715534612592 15.887621836555525 -1.0907256117536344 0.17155330396086022 17.595764351440774 -1.2889783092865275 0.20412831913882362 18.606268752117966 1.6775081701298504 -0.10858373103965989 7.316983537766949 -1.1262907876649024 0.17078426391718915 17.120390333794862 -0.5396304214461747 0.03584195028076152 7.7563788047286195 -0.981802730254478 -1.4062191760304024 -4.358953506524811 -29.525240468806643 10.762548833838453 -22.044538076941976 -3.2265087591652293 -15.893521442881767 -12.33306943368658 -17.544903812551905 1.015628037687282 -12.422897939254337 -20.80182728220067 3.217532376718082 -70.83495900863316 -1.467771305920178 0.00024087352151493945 0.018958606209604722 -0.3711713191130298 -32.558900977035925 -5.85716529501071 5.438048360606986 0.957813116502448 -27.1119864871323 1.500623922479258 0.29788168646045465 -17.418532156372365 1.4412876594939181 0.2690551602970885 -16.518948569383184 3.3758957024832217 0.08850535298817289 -21.17678325905892 1.8293934635403315 0.3379009685472521 -20.91184531891657 1.5722904823895114 0.24736159206244898 -17.865250916449973 2.4212922445261267 -0.11288987987029683 -15.627257060578131 1.5348073139742255 0.23407902470521574 -17.396628074579223 1.6205156052989143 0.26252905776483193 -18.404660829744852 -1.1033516567121822 0.011491307271566359 -7.543905628540843 1.54344969144362 0.23636158110332964 -17.389834933721897 0.7098083845796935 0.05037201128751328 -8.047110637864932 2.8259092926080203 -0.3530625833074061 4.825592544922021 25.153124287195194 10.489492631620307 21.688778106155755 3.0787078408832413 -13.983335454670362 8.212067101445692 -10.337879792669945 0.7502328747557753 3.512024078630823 -9.898426977768702 7.24214189877676 -4.416163888667455 -1.6202696843515703 -3.681108735098877 3.3457691289841507 0.000024585787371901425 -7.282869208235281 -0.0000063259223856853895 15.137449186791924 -10.311357816802689 7.376785834462022 2.0911580026411762 12.158344244193328 4.581445842847366 0.4300388509247569 1.2497148546109451 -7.089885996806294 0.000007155980479766508 -4.928527694458791 -4.4709285245612385e-8
0.015931643545627594 -0.1054227822583016 0.022661658003926277 -5.21163439826443 -4.007580194193818 -3.3458854185504476 1.5779736799111594 3.2951754848510015 2.8004912519795155 0.7720278994776146 2.266762448090761 3.129372765188045 -0.10304719800533176 5.643900428127294 0.49178088667638553 1.2675197283207307 -7.24692966238203 -0.25495953640457497 0 0 0 0 0 0 0 0 0 15.59354325256655 1.1697622563733607 14.72021622327057 28.894829260205924 11.195305669663094 64.84977562971734 6.8966819068533844 0.005359519882704019 -0.08886151615625694 -0.5203482138237892 -19.329254664724367 7.213162465505517 -4.43042767116633 0.5919245945510544 29.40957108079444 -1.0768253723074641 0.13095044844373113 17.297406987096977 -1.1684892105681215 0.13147838876645537 16.39629931187849 -3.0678051897778835 0.04288627155026679 23.10934288785812 -1.4415085267255534 0.2673653903348737 21.163117556225288 -1.2315364784584824 0.20073229320281077 18.109242556433973 -1.9219541936249465 -0.2734516369178645 18.18473910901902 -1.1080245110999396 0.17688118297010236 17.86002949346895 -1.3061633565552206 0.20994176855269125 18.87094380909124 2.587169697108245 -0.5046471008284215 8.495798442280854 -1.0649325419041706 0.15261367381184346 16.186054797253014 -0.4759842346906186 0.027708350985158652 6.819473219572574 -0.9815550016442871 -1.4023080382586879 -4.35883432919003 -29.443839919884965 10.635879311300933 -22.412046824843785 -3.5573006345271416 -15.947403707496916 -13.594070521505419 -17.489794579900114 1.0392544726011106 -12.246098033572622 -20.948643407228065 3.1236160877732475 -70.92325134851463 -1.4102617468786318 0.0002281256710804672 0.01822946187120074 1.6760077720848208 -31.40957045998381 -6.895742131589298 5.438046660507354 0.9578317954109337 -27.111994124234936 1.499517542207112 0.2974860637574376 -17.405424756952446 1.4401622764439472 0.2686602589575902 -16.50571165645608 3.378968010893108 0.08915063988756905 -21.211248118882388 1.8231449570772142 0.33549485946472096 -20.837158421827542 1.5655518751287156 0.24520080440403738 -17.786249255517426 2.328517208624318 -0.14051399410837495 -15.698866294379814 1.5310504712617874 0.23291430769738064 -17.352643148912804 1.616894138160236 0.2613302403167877 -18.36197165821232 -1.122126601149353 0.005873708815566304 -7.589080742218489 1.5462057454114915 0.23722157863330906 -17.422177775963974 0.7126556585379982 0.05077869451615198 -8.079228603492783 2.8048371394325997 -0.2841891416122274 4.749491737482545 25.12603837677876 10.457035265988717 21.797639853570885 3.1344774474847172 -14.030977068191488 8.265007058598691 -10.296933601224941 0.7804235638060338 3.4610547157883347 -10.001884640603299 7.670275520252058 -4.518620785903099 -1.6155752608209752 -3.9584082903464357 3.4294921839688013 0.000007286749307491837 -7.2828726511056185 -0.0000018041902108830777 15.178271879348857 -10.25168735855129 7.416633550523699 1.9976996327705046 12.511153986007422 4.583578584467849 0.431233282334655 1.0457472152400125 -7.069763330651863 -1.2108553499735968e-7 -4.928518268096124 -0.0000025065053954083777
0.015491862781345844 -0.10961513455322347 0.03425183519721031 -5.18553522487365 -4.2273201454722615 -3.3365587775183183 1.5758971547144065 3.295446365548102 2.790851536177873 0.7530673548588268 2.258691195549987 3.1289746363278725 -0.1281732090041039 5.61207929225104 0.5523368872157779 1.1822030814069073 -6.864098600998908 -0.21573752421574127 0 0 0 0 0 0 0 0 0 15.668657169628208 1.2054088805203 14.436410431477233 29.021953623641306 11.085938183189082 64.89311456285928 7.447958678023681 0.006244521305129665 -0.09593871893937857 -0.13024015441842612 -17.927860833094524 7.023903893192244 -4.153412287514847 0.3558935374547425 32.078104860912724 -1.070874383972002 0.1293595438708114 17.20754792963413 -1.1623237979009846 0.12983141509998233 16.30326329204905 -3.042837223017348 -0.0064138569702316475 25.298710470781185 -1.4567879323834723 0.2733471284976881 21.402668195275275 -1.2474040246730862 0.20604917540623463 18.353637386199466 -1.6886139589726925 -0.4489989267561019 20.858267657381646 -1.12021334548875 0.18068565688052385 18.046449997449514 -1.3184312734501413 0.21415000765473355 19.060410313185454 3.5795873355366763 -0.9561818611327046 9.546337145918336 -0.9891637507723943 0.13166540570872057 15.038319733312635 -0.3982570934330348 0.019196578859274026 5.677640460789376 -0.979458866267505 -1.385499091252774 -4.3694019909930555 -29.425108784711874 10.606879208658441 -22.496591213000176 -3.8070523389375084 -16.027576503373503 -14.772687882263085 -17.48415082478122 1.0931958417334848 -11.858871984571127 -21.04731136480798 2.9915065189984733 -71.24699268793592 -1.311622519079419 0.00019100840375559243 0.016944507565223744 2.49097628239511 -30.815352991285963 -7.439146657516495 5.4376984047255545 0.9575684761789948 -27.107312142992356 1.4974986688851633 0.296764188432981 -17.381434905517764 1.438104362846403 0.26796866804034064 -16.481448431133714 3.38440835113804 0.09024256435832889 -21.272295381885087 1.8117615013150459 0.3311798944722869 -20.7011636734479 1.5533107464416416 0.24129459468632777 -17.642549695671537 2.255665366393735 -0.17064681909025875 -16.049014121527954 1.5282782034306892 0.23203966275791607 -17.32025693807931 1.6142805906966293 0.26046165002906 -18.331161474740014 -1.090006957349458 0.010669936154102253 -7.783047521091525 1.5515961570816739 0.23892404466120304 -17.485359004143316 0.7182545269949733 0.05157308785517978 -8.142402087687856 2.9002264751413662 -0.32277003374482466 4.8165527625829405 25.130003624802228 10.456918928119054 21.796460374098608 3.14841486844284 -14.051605888449282 8.30704300045495 -10.278144556380607 0.8554328257249793 3.404914377321694 -10.066905709321576 8.1051849790141 -4.611064005072782 -1.6090353624257527 -4.255770246386053 3.5081282406813594 0.00003052510607114023 -7.2828752332583875 -0.000004684394364780684 15.231441579336698 -10.18134118486431 7.47714419040186 1.9072127973417778 12.925906649552953 4.593647080309933 0.43134280379576556 0.8050067004241901 -7.069480704913683 0.000004549482466793571 -4.928521267393322 0.0000017065401418939185
